<?xml version="1.0" encoding="UTF-8" standalone="no"?>
<!-- Created with Inkscape (http://www.inkscape.org/) -->

<svg
   width="102.32228"
   height="102.322"
   viewBox="0 0 27.072769 27.072698"
   version="1.1"
   id="svg1"
   xml:space="preserve"
   inkscape:version="1.3.2 (091e20ef0f, 2023-11-25, custom)"
   sodipodi:docname="hanmari_CM_rev1_TRIM.svg"
   xmlns:inkscape="http://www.inkscape.org/namespaces/inkscape"
   xmlns:sodipodi="http://sodipodi.sourceforge.net/DTD/sodipodi-0.dtd"
   xmlns="http://www.w3.org/2000/svg"
   xmlns:svg="http://www.w3.org/2000/svg"><sodipodi:namedview
     id="namedview1"
     pagecolor="#ffffff"
     bordercolor="#000000"
     borderopacity="0.25"
     inkscape:showpageshadow="2"
     inkscape:pageopacity="0.0"
     inkscape:pagecheckerboard="0"
     inkscape:deskcolor="#d1d1d1"
     inkscape:document-units="mm"
     showguides="true"
     inkscape:zoom="4"
     inkscape:cx="64.625"
     inkscape:cy="77"
     inkscape:window-width="1920"
     inkscape:window-height="1012"
     inkscape:window-x="4864"
     inkscape:window-y="1080"
     inkscape:window-maximized="1"
     inkscape:current-layer="layer7"><sodipodi:guide
       position="13.235572,15.159824"
       orientation="0,-1"
       id="guide25"
       inkscape:locked="false" /><sodipodi:guide
       position="13.536642,15.463184"
       orientation="1,0"
       id="guide26"
       inkscape:locked="false" /><sodipodi:guide
       position="14.476636,17.788775"
       orientation="0,-1"
       id="guide33"
       inkscape:locked="false" /><inkscape:page
       x="0"
       y="0"
       width="27.072769"
       height="27.072699"
       id="page45"
       margin="0"
       bleed="0"
       inkscape:export-filename="Hanmari_CM_rev1_3000px.png"
       inkscape:export-xdpi="2814.6362"
       inkscape:export-ydpi="2814.6362" /><inkscape:page
       x="136.6763"
       y="157.26898"
       width="0"
       height="0"
       id="page46"
       margin="0 0 0 0"
       bleed="0" /></sodipodi:namedview><defs
     id="defs1" /><g
     inkscape:groupmode="layer"
     id="layer7"
     inkscape:label="Main"
     style="display:inline"
     transform="translate(-73.323688,-139.731)"><path
       id="path37"
       style="display:inline;opacity:1;fill:none;fill-opacity:1;stroke:#ffffff;stroke-width:1.32292;stroke-linejoin:round;stroke-miterlimit:20;stroke-dasharray:none;stroke-opacity:1;paint-order:stroke fill markers"
       inkscape:label="Outer Petal ALL"
       d="m 86.860331,140.39246 c -1.403314,0.001 -2.67462,0.79631 -3.244763,2.02985 -1.75555,-0.15866 -3.87833,1.11315 -3.878316,3.40393 2.356329,2.38548 4.747551,4.76202 7.123079,7.13755 2.386572,-2.32113 4.819665,-4.80986 7.122563,-7.13755 1.5e-5,-2.35967 -2.239487,-3.58183 -3.873149,-3.39669 -0.568571,-1.23786 -1.842637,-2.03658 -3.249414,-2.03709 z m -7.441406,5.75211 c -2.359668,-10e-6 -3.581832,2.23949 -3.396692,3.87315 -1.237859,0.56857 -2.036575,1.84263 -2.037085,3.24941 0.001,1.40331 0.796302,2.67462 2.02985,3.24476 -0.158659,1.75555 1.113149,3.87833 3.403927,3.87832 2.385478,-2.35634 4.762021,-4.74755 7.137549,-7.12308 -2.321128,-2.38658 -4.809861,-4.81966 -7.137549,-7.12256 z m 14.882296,0 c -2.385478,2.35634 -4.762022,4.74755 -7.137549,7.12308 2.321128,2.38657 4.809861,4.81966 7.137549,7.12256 2.359667,1e-5 3.581831,-2.23949 3.396692,-3.87315 1.237858,-0.56858 2.036575,-1.84263 2.037085,-3.24941 -0.001,-1.40331 -0.796302,-2.67463 -2.029851,-3.24477 0.15866,-1.75554 -1.113149,-3.87832 -3.403926,-3.87831 z m -7.441407,7.42642 c -2.386571,2.32113 -4.819665,4.80986 -7.122562,7.13755 -1.5e-5,2.35966 2.239487,3.58183 3.873148,3.39669 0.568572,1.23786 1.842638,2.03657 3.249414,2.03708 1.403315,-0.001 2.67462,-0.7963 3.244764,-2.02985 1.75555,0.15866 3.87833,-1.11315 3.878316,-3.40392 -2.35633,-2.38548 -4.747551,-4.76202 -7.12308,-7.13755 z" /><path
       id="path22"
       style="opacity:1;fill:#c7303e;fill-opacity:1;stroke:none;stroke-width:0.03;stroke-linejoin:round;stroke-miterlimit:20;stroke-dasharray:none;stroke-opacity:1;paint-order:stroke fill markers"
       d="m 86.860331,140.39246 c -1.403316,0.001 -2.674619,0.7963 -3.244763,2.02985 -1.755552,-0.15866 -3.87833,1.11315 -3.878316,3.40393 2.356332,2.38548 4.747548,4.76202 7.123079,7.13755 2.386574,-2.32113 4.819663,-4.80986 7.122563,-7.13755 1.5e-5,-2.35967 -2.239486,-3.58183 -3.873149,-3.39669 -0.568572,-1.23786 -1.842636,-2.03658 -3.249414,-2.03709 z"
       sodipodi:nodetypes="ccccccc"
       inkscape:label="Outer Petal N" /><path
       id="path30"
       style="display:inline;opacity:1;fill:#6683d0;fill-opacity:1;stroke:none;stroke-width:0.03;stroke-linejoin:round;stroke-miterlimit:20;stroke-dasharray:none;stroke-opacity:1;paint-order:stroke fill markers"
       d="m 86.859815,166.14247 c 1.403316,-0.001 2.674619,-0.7963 3.244763,-2.02985 1.755552,0.15866 3.87833,-1.11315 3.878316,-3.40393 -2.356332,-2.38548 -4.747548,-4.76202 -7.123079,-7.13755 -2.386574,2.32113 -4.819663,4.80986 -7.122563,7.13755 -1.5e-5,2.35967 2.239486,3.58183 3.873149,3.39669 0.568572,1.23786 1.842636,2.03658 3.249414,2.03709 z"
       sodipodi:nodetypes="ccccccc"
       inkscape:label="Outer Petal S" /><path
       id="path31"
       style="display:inline;opacity:1;fill:#f19246;fill-opacity:1;stroke:none;stroke-width:0.03;stroke-linejoin:round;stroke-miterlimit:20;stroke-dasharray:none;stroke-opacity:1;paint-order:stroke fill markers"
       d="m 99.735078,153.26772 c -0.001,-1.40331 -0.7963,-2.67462 -2.02985,-3.24476 0.15866,-1.75555 -1.11315,-3.87833 -3.40393,-3.87832 -2.38548,2.35634 -4.76202,4.74755 -7.13755,7.12308 2.32113,2.38658 4.80986,4.81967 7.13755,7.12257 2.35967,1e-5 3.58183,-2.23949 3.39669,-3.87315 1.23786,-0.56858 2.03658,-1.84264 2.03709,-3.24942 z"
       sodipodi:nodetypes="ccccccc"
       inkscape:label="Outer Petal E" /><path
       id="path32"
       style="display:inline;opacity:1;fill:#41b46d;fill-opacity:1;stroke:none;stroke-width:0.03;stroke-linejoin:round;stroke-miterlimit:20;stroke-dasharray:none;stroke-opacity:1;paint-order:stroke fill markers"
       d="m 73.985068,153.26721 c 0.001,1.40331 0.7963,2.67462 2.02985,3.24476 -0.15866,1.75555 1.11315,3.87833 3.40393,3.87832 2.38548,-2.35634 4.76202,-4.74755 7.13755,-7.12308 -2.32113,-2.38658 -4.80986,-4.81967 -7.13755,-7.12257 -2.35967,-1e-5 -3.58183,2.23949 -3.39669,3.87315 -1.23786,0.56857 -2.03658,1.84264 -2.03709,3.24942 z"
       sodipodi:nodetypes="ccccccc"
       inkscape:label="Outer Petal W" /><path
       id="path26"
       style="display:inline;opacity:1;fill:#514061;fill-opacity:1;stroke:none;stroke-width:0.03;stroke-linejoin:round;stroke-miterlimit:20;stroke-dasharray:none;stroke-opacity:1;paint-order:stroke fill markers"
       d="m 85.359648,147.19257 c -0.605346,-0.0188 -1.530897,0.47027 -1.530655,1.50791 0,0.80896 1.434028,1.8 3.031337,4.56667 1.617419,-2.77207 3.038841,-3.69411 3.030825,-4.56667 2.8e-4,-1.20258 -1.201068,-1.55811 -1.527038,-1.50643 -0.05544,-0.78994 -0.712414,-1.40246 -1.503321,-1.40171 -0.790907,7.6e-4 -1.445309,0.61228 -1.501148,1.40023 z"
       sodipodi:nodetypes="ccccccc"
       inkscape:label="Inner Petal N" /><path
       id="path35"
       style="display:inline;opacity:1;fill:#514061;fill-opacity:1;stroke:none;stroke-width:0.03;stroke-linejoin:round;stroke-miterlimit:20;stroke-dasharray:none;stroke-opacity:1;paint-order:stroke fill markers"
       d="m 80.785361,154.78271 c -0.0188,0.60535 0.47027,1.5309 1.50791,1.53066 0.80896,0 1.8,-1.43403 4.56667,-3.03134 -2.77207,-1.61742 -3.69411,-3.03884 -4.56667,-3.03082 -1.20258,-2.8e-4 -1.55811,1.20106 -1.50643,1.52703 -0.78994,0.0554 -1.40246,0.71242 -1.40171,1.50333 7.6e-4,0.7909 0.61228,1.4453 1.40023,1.50114 z"
       sodipodi:nodetypes="ccccccc"
       inkscape:label="Inner Petal W" /><path
       id="path36"
       style="display:inline;opacity:1;fill:#514061;fill-opacity:1;stroke:none;stroke-width:0.03;stroke-linejoin:round;stroke-miterlimit:20;stroke-dasharray:none;stroke-opacity:1;paint-order:stroke fill markers"
       d="m 92.949791,151.76686 c 0.0188,-0.60535 -0.47027,-1.5309 -1.50791,-1.53066 -0.80896,0 -1.8,1.43403 -4.56667,3.03134 2.77207,1.61742 3.69411,3.03884 4.56667,3.03082 1.20258,2.8e-4 1.55811,-1.20106 1.50643,-1.52703 0.78994,-0.0554 1.40246,-0.71242 1.40171,-1.50332 -7.6e-4,-0.79091 -0.61228,-1.44531 -1.40023,-1.50115 z"
       sodipodi:nodetypes="ccccccc"
       inkscape:label="Inner Petal E" /><path
       id="path34"
       style="display:inline;opacity:1;fill:#514061;fill-opacity:1;stroke:none;stroke-width:0.03;stroke-linejoin:round;stroke-miterlimit:20;stroke-dasharray:none;stroke-opacity:1;paint-order:stroke fill markers"
       d="m 88.375504,159.357 c 0.605346,0.0188 1.530897,-0.47027 1.530655,-1.50791 0,-0.80896 -1.434028,-1.8 -3.031337,-4.56667 -1.617419,2.77207 -3.038841,3.69411 -3.030825,4.56667 -2.8e-4,1.20258 1.201068,1.55811 1.527038,1.50643 0.05544,0.78994 0.712414,1.40246 1.503321,1.40171 0.790907,-7.6e-4 1.445309,-0.61228 1.501148,-1.40023 z"
       sodipodi:nodetypes="ccccccc"
       inkscape:label="Inner Petal S" /><circle
       style="opacity:1;fill:#514061;fill-opacity:1;stroke:none;stroke-width:0.03;stroke-linejoin:round;stroke-miterlimit:20;stroke-dasharray:none;stroke-opacity:1;paint-order:stroke fill markers"
       id="path33"
       cx="86.875061"
       cy="153.28242"
       r="3.2152586"
       inkscape:label="Inner Petal C" /><circle
       style="opacity:1;fill:#fcc665;fill-opacity:1;stroke:none;stroke-width:0.03;stroke-linejoin:round;stroke-miterlimit:20;stroke-dasharray:none;stroke-opacity:1;paint-order:stroke fill markers"
       id="circle33"
       cx="86.875061"
       cy="153.28242"
       r="2.644218"
       inkscape:label="Inner Circle" /></g></svg>
